<svg width="110" height="38" viewBox="0 0 110 38" fill="none" xmlns="http://www.w3.org/2000/svg">
<path d="M19.3045 -1.0365e-06L17.9917 9.86263L16.0562 2.65921L10.8893 3.24827L11.5793 30.9304L15.7533 33.0679L9.02953 33.7074L2.30577 34.347L7.20343 30.7958L8.06178 3.41658L2.72653 3.21461L0.656388 9.34089L7.68375e-07 0.286117L19.3045 -1.0365e-06Z" fill="black"/>
<path d="M26.3022 14.664C26.2013 14.2489 26.0554 13.8955 25.8647 13.6037C25.6851 13.312 25.4776 13.0708 25.2419 12.88C25.0175 12.6781 24.7763 12.5266 24.5182 12.4256C24.2602 12.3134 24.0021 12.2292 23.744 12.1731C23.1381 12.0497 22.493 12.0553 21.8085 12.19C21.5729 12.2685 21.3204 12.3919 21.0511 12.5602C20.8155 12.7173 20.5462 12.9305 20.2433 13.1998C19.9403 13.4579 19.615 13.8057 19.2671 14.2433L19.5701 24.0049L22.5995 25.5197L13.6794 26.3107L15.9852 23.9713L16.9277 12.2573L13.3428 10.6247L19.1325 9.53076L19.1998 11.6346C19.5925 11.1633 19.9964 10.7762 20.4116 10.4733C20.8267 10.1703 21.2026 9.92347 21.5392 9.73272C21.9319 9.51954 22.3134 9.35684 22.6837 9.24464C23.3569 9.08756 24.0414 9.02585 24.737 9.05951C25.0287 9.07073 25.3317 9.10439 25.6459 9.16049C25.9712 9.21659 26.2966 9.30635 26.622 9.42978C26.9586 9.54198 27.284 9.69906 27.5982 9.90103C27.9124 10.0918 28.2153 10.333 28.507 10.6247L26.3022 14.664Z" fill="black"/>
<path d="M28.5407 26.3107L31.1831 24.2406L30.6108 12.6276L27.4972 10.5911L34.7343 9.36245L33.4384 22.8605L37.0569 25.1157L28.5407 26.3107ZM34.9194 5.28949C34.9194 5.6261 34.8521 5.94588 34.7175 6.24882C34.5828 6.54055 34.3977 6.80423 34.1621 7.03985C33.9264 7.26426 33.6572 7.44379 33.3542 7.57843C33.0513 7.70185 32.7315 7.76356 32.3949 7.76356C32.0358 7.76356 31.6992 7.70185 31.385 7.57843C31.0821 7.44379 30.8184 7.26426 30.594 7.03985C30.3696 6.80423 30.1901 6.54055 30.0554 6.24882C29.9208 5.94588 29.8535 5.6261 29.8535 5.28949C29.8535 4.94166 29.9208 4.62188 30.0554 4.33015C30.1901 4.02721 30.3696 3.76353 30.594 3.53912C30.8184 3.31472 31.0821 3.1408 31.385 3.01738C31.6992 2.88274 32.0358 2.81541 32.3949 2.81541C32.7315 2.81541 33.0513 2.88274 33.3542 3.01738C33.6572 3.1408 33.9264 3.31472 34.1621 3.53912C34.3977 3.76353 34.5828 4.02721 34.7175 4.33015C34.8521 4.62188 34.9194 4.94166 34.9194 5.28949Z" fill="black"/>
<path d="M41.4328 24.0386L44.7989 25.385L36.3668 26.2097L39.3963 23.8366L38.8746 5.65976L34.9868 3.97672L43.5029 2.84908L41.4328 24.0386Z" fill="black"/>
<path d="M49.6461 24.0386L53.0121 25.385L44.5801 26.2097L47.6096 23.8366L47.0878 5.65976L43.2 3.97672L51.7162 2.84908L49.6461 24.0386Z" fill="black"/>
<path d="M53.5844 26.3107L56.2268 24.2406L55.6545 12.6276L52.5409 10.5911L59.778 9.36245L58.482 22.8605L62.1006 25.1157L53.5844 26.3107ZM59.9631 5.28949C59.9631 5.6261 59.8958 5.94588 59.7611 6.24882C59.6265 6.54055 59.4414 6.80423 59.2057 7.03985C58.9701 7.26426 58.7008 7.44379 58.3979 7.57843C58.0949 7.70185 57.7752 7.76356 57.4385 7.76356C57.0795 7.76356 56.7429 7.70185 56.4287 7.57843C56.1258 7.44379 55.8621 7.26426 55.6377 7.03985C55.4133 6.80423 55.2338 6.54055 55.0991 6.24882C54.9645 5.94588 54.8972 5.6261 54.8972 5.28949C54.8972 4.94166 54.9645 4.62188 55.0991 4.33015C55.2338 4.02721 55.4133 3.76353 55.6377 3.53912C55.8621 3.31472 56.1258 3.1408 56.4287 3.01738C56.7429 2.88274 57.0795 2.81541 57.4385 2.81541C57.7752 2.81541 58.0949 2.88274 58.3979 3.01738C58.7008 3.1408 58.9701 3.31472 59.2057 3.53912C59.4414 3.76353 59.6265 4.02721 59.7611 4.33015C59.8958 4.62188 59.9631 4.94166 59.9631 5.28949Z" fill="black"/>
<path d="M63.1609 7.19133L64.8944 10.1198L76.5747 10.3555L68.0585 23.803L73.3265 24.9306L76.5074 21.5309L75.5649 29.2392L74.1848 26.6305L61.7808 26.378L72.5691 12.7285L64.3054 13.4186L63.1609 15.6907V7.19133Z" fill="black"/>
<path d="M92.9171 15.657C92.9171 16.2517 92.8834 16.8913 92.8161 17.5757C92.7488 18.2601 92.6478 18.9558 92.5132 19.6627C92.3897 20.3696 92.2383 21.0652 92.0588 21.7497C91.8904 22.4229 91.7053 23.0456 91.5033 23.6178L95.0882 26.1424L88.7432 25.8731L89.1303 23.803C88.457 24.6445 87.6772 25.2897 86.7908 25.7385C85.9156 26.1761 84.9002 26.4397 83.7445 26.5295C82.802 26.5968 81.9773 26.5295 81.2704 26.3275C80.5748 26.1368 79.9913 25.8395 79.5201 25.4355C79.06 25.0204 78.7178 24.5155 78.4934 23.9208C78.269 23.3149 78.1568 22.6417 78.1568 21.9011C78.1568 21.2167 78.3251 20.5547 78.6617 19.9151C78.9983 19.2644 79.4808 18.6921 80.1091 18.1984C80.7487 17.7047 81.5285 17.312 82.4486 17.0203C83.3686 16.7174 84.4121 16.5659 85.579 16.5659C86.1176 16.5659 86.7347 16.6164 87.4304 16.7174C88.1373 16.8183 88.8049 17.0315 89.4332 17.3569C89.3771 16.6725 89.2705 15.9768 89.1134 15.2699C88.9676 14.5518 88.7488 13.9011 88.457 13.3176C88.1653 12.7342 87.7838 12.2629 87.3126 11.9039C86.8525 11.5336 86.2747 11.3484 85.579 11.3484C84.9844 11.3484 84.4065 11.4719 83.8455 11.7187C83.2845 11.9656 82.7571 12.319 82.2634 12.779C81.781 13.2391 81.3434 13.8001 80.9507 14.4621C80.558 15.1241 80.2269 15.8702 79.9577 16.7005L78.5439 8.45361L80.6814 11.7355C81.2087 11.0848 81.7417 10.5686 82.2803 10.1871C82.8188 9.79444 83.3518 9.4971 83.8792 9.29513C84.4177 9.08195 84.9339 8.9417 85.4276 8.87437C85.9325 8.80705 86.4149 8.77339 86.875 8.77339C87.7389 8.81827 88.5356 8.9978 89.2649 9.31196C90.0054 9.61491 90.645 10.0581 91.1836 10.6416C91.7221 11.2138 92.1429 11.9207 92.4458 12.7622C92.76 13.6037 92.9171 14.5687 92.9171 15.657ZM89.4332 21.0428C89.4556 20.7286 89.4725 20.4257 89.4837 20.1339C89.4949 19.8422 89.5005 19.5561 89.5005 19.2756V19.0736C89.0966 18.9165 88.687 18.7987 88.2719 18.7202C87.868 18.6304 87.4921 18.5687 87.1443 18.535C86.7964 18.4902 86.4991 18.4677 86.2523 18.4677C86.0166 18.4565 85.8595 18.4509 85.781 18.4509C85.1414 18.4733 84.586 18.5911 84.1148 18.8043C83.6435 19.0175 83.2508 19.2868 82.9366 19.6122C82.6337 19.9264 82.4037 20.2798 82.2466 20.6725C82.1007 21.0652 82.0278 21.4523 82.0278 21.8338C82.0278 22.6978 82.2354 23.3542 82.6505 23.803C83.0769 24.2406 83.694 24.4594 84.5019 24.4594C85.0405 24.4594 85.551 24.364 86.0335 24.1732C86.5159 23.9825 86.9647 23.73 87.3799 23.4159C87.8063 23.0905 88.1878 22.7258 88.5244 22.3219C88.8722 21.9067 89.1751 21.4804 89.4332 21.0428Z" fill="black"/>
<path d="M102.409 9.00902C102.836 9.00902 103.268 9.04829 103.705 9.12683C104.143 9.19415 104.569 9.30074 104.985 9.44661C105.411 9.58125 105.809 9.74955 106.179 9.95152C106.561 10.1423 106.903 10.3555 107.206 10.5911L109.966 7.19133L108.721 15.5897C108.586 15.0063 108.351 14.434 108.014 13.873C107.677 13.3008 107.257 12.7903 106.752 12.3414C106.258 11.8926 105.686 11.5336 105.035 11.2643C104.384 10.9838 103.672 10.8435 102.898 10.8435C102.471 10.8435 102.062 10.894 101.669 10.995C101.276 11.0848 100.928 11.2362 100.625 11.4494C100.334 11.6626 100.098 11.9319 99.9186 12.2573C99.7503 12.5827 99.6661 12.9698 99.6661 13.4186C99.6661 13.9572 99.812 14.3948 100.104 14.7314C100.407 15.068 100.799 15.3541 101.282 15.5897C101.764 15.8141 102.314 16.0105 102.931 16.1788C103.548 16.3359 104.182 16.5042 104.833 16.6837C105.484 16.8632 106.118 17.0764 106.735 17.3233C107.352 17.5589 107.902 17.8674 108.384 18.2489C108.867 18.6304 109.254 19.1073 109.546 19.6795C109.849 20.2405 110 20.9362 110 21.7665C110 22.6978 109.815 23.4944 109.445 24.1564C109.086 24.8072 108.62 25.3458 108.048 25.7721C107.475 26.1873 106.841 26.4902 106.146 26.681C105.45 26.8717 104.771 26.9671 104.109 26.9671C103.571 26.9671 103.032 26.911 102.494 26.7988C101.955 26.6866 101.433 26.5295 100.928 26.3275C100.423 26.1256 99.941 25.8843 99.481 25.6038C99.0322 25.3233 98.6226 25.0204 98.2523 24.695L95.6941 28.1116L96.4851 19.7637C96.8442 20.5266 97.2762 21.2391 97.7811 21.9011C98.286 22.5631 98.847 23.141 99.4641 23.6347C100.081 24.1171 100.743 24.4986 101.45 24.7791C102.157 25.0484 102.892 25.1831 103.655 25.1831C104.541 25.1831 105.248 24.9979 105.776 24.6277C106.314 24.2462 106.583 23.7076 106.583 23.0119C106.583 22.5631 106.432 22.1929 106.129 21.9011C105.837 21.5982 105.445 21.3345 104.951 21.1101C104.468 20.8857 103.919 20.6837 103.301 20.5042C102.684 20.3247 102.05 20.1283 101.4 19.9151C100.749 19.702 100.115 19.4551 99.4978 19.1746C98.8807 18.8829 98.3253 18.5238 97.8316 18.0975C97.3491 17.6599 96.9564 17.1325 96.6535 16.5154C96.3617 15.8871 96.2159 15.1297 96.2159 14.2433C96.2159 13.4803 96.3281 12.8183 96.5525 12.2573C96.7769 11.6963 97.0686 11.225 97.4277 10.8435C97.7979 10.4508 98.2075 10.1367 98.6563 9.90103C99.1163 9.65418 99.5763 9.46905 100.036 9.34562C100.496 9.21098 100.934 9.12122 101.349 9.07634C101.764 9.03146 102.118 9.00902 102.409 9.00902Z" fill="black"/>
<path d="M22.1712 30.8818H19.7018V29.8054H22.1712C22.2451 29.8054 22.3084 29.779 22.3612 29.7263C22.4139 29.6735 22.4403 29.6102 22.4403 29.5363C22.4403 29.4598 22.4139 29.4097 22.3612 29.3859C22.3084 29.3622 22.2451 29.3503 22.1712 29.3503H21.0473C20.86 29.3503 20.6846 29.3147 20.521 29.2435C20.3574 29.1722 20.215 29.0759 20.0936 28.9546C19.9723 28.8306 19.876 28.6868 19.8047 28.5232C19.7361 28.3597 19.7018 28.1842 19.7018 27.9969C19.7018 27.8096 19.7361 27.6341 19.8047 27.4706C19.876 27.307 19.9723 27.1645 20.0936 27.0432C20.215 26.9218 20.3574 26.8268 20.521 26.7582C20.6846 26.687 20.86 26.6514 21.0473 26.6514H23.2358V27.7278H21.0473C20.9735 27.7278 20.9102 27.7542 20.8574 27.8069C20.8046 27.8597 20.7782 27.923 20.7782 27.9969C20.7782 28.0734 20.8046 28.1394 20.8574 28.1948C20.9102 28.2475 20.9735 28.2739 21.0473 28.2739H22.1712C22.3559 28.2739 22.53 28.3056 22.6936 28.3689C22.8572 28.4296 22.9996 28.5153 23.121 28.6261C23.2424 28.7369 23.3386 28.8702 23.4099 29.0258C23.4811 29.1815 23.5167 29.3516 23.5167 29.5363C23.5167 29.7236 23.4811 29.8991 23.4099 30.0626C23.3386 30.2236 23.2424 30.366 23.121 30.49C22.9996 30.6114 22.8572 30.7077 22.6936 30.7789C22.53 30.8475 22.3559 30.8818 22.1712 30.8818ZM25.1749 30.8818H24.0945V24.9576H25.1749V26.8295C25.3041 26.7319 25.4374 26.6633 25.5746 26.6237C25.7117 26.5815 25.8516 26.5604 25.994 26.5604C26.2552 26.5604 26.5006 26.6105 26.7301 26.7108C26.9596 26.8084 27.1588 26.9442 27.3277 27.1184C27.4991 27.2898 27.6337 27.4917 27.7313 27.7238C27.8316 27.9534 27.8817 28.1987 27.8817 28.4599V30.8818H26.7934V28.4599H26.8013C26.8013 28.3491 26.7802 28.2449 26.738 28.1473C26.6958 28.047 26.6378 27.96 26.5639 27.8861C26.49 27.8122 26.4043 27.7542 26.3067 27.712C26.209 27.6698 26.1048 27.6486 25.994 27.6486C25.8806 27.6486 25.7737 27.6698 25.6735 27.712C25.5732 27.7542 25.4862 27.8122 25.4123 27.8861C25.3384 27.96 25.2804 28.047 25.2382 28.1473C25.196 28.2449 25.1749 28.3491 25.1749 28.4599V30.8818ZM32.7492 28.725C32.7492 29.0416 32.6925 29.3371 32.5791 29.6115C32.4656 29.8832 32.3113 30.1194 32.1161 30.3199C31.9208 30.5177 31.6913 30.6747 31.4275 30.7908C31.1663 30.9042 30.8853 30.961 30.5846 30.961C30.2864 30.961 30.0055 30.9042 29.7416 30.7908C29.4805 30.6747 29.2509 30.5177 29.0531 30.3199C28.8578 30.1194 28.7035 29.8832 28.5901 29.6115C28.4766 29.3371 28.4199 29.0416 28.4199 28.725C28.4199 28.4032 28.4766 28.1051 28.5901 27.8307C28.7035 27.5563 28.8578 27.3202 29.0531 27.1223C29.2509 26.9218 29.4805 26.7648 29.7416 26.6514C30.0055 26.538 30.2864 26.4812 30.5846 26.4812C30.8853 26.4812 31.1663 26.5353 31.4275 26.6435C31.6913 26.749 31.9208 26.9007 32.1161 27.0986C32.3113 27.2938 32.4656 27.5299 32.5791 27.8069C32.6925 28.0813 32.7492 28.3874 32.7492 28.725ZM31.661 28.725C31.661 28.5509 31.6319 28.3939 31.5739 28.2541C31.5185 28.1117 31.442 27.9903 31.3444 27.89C31.2468 27.7872 31.132 27.7093 31.0001 27.6566C30.8708 27.6012 30.7323 27.5735 30.5846 27.5735C30.4368 27.5735 30.297 27.6012 30.1651 27.6566C30.0358 27.7093 29.9224 27.7872 29.8247 27.89C29.7298 27.9903 29.6546 28.1117 29.5992 28.2541C29.5438 28.3939 29.5161 28.5509 29.5161 28.725C29.5161 28.8886 29.5438 29.0403 29.5992 29.1801C29.6546 29.32 29.7298 29.4413 29.8247 29.5442C29.9224 29.6471 30.0358 29.7289 30.1651 29.7896C30.297 29.8476 30.4368 29.8766 30.5846 29.8766C30.7323 29.8766 30.8708 29.8489 31.0001 29.7935C31.132 29.7381 31.2468 29.6603 31.3444 29.56C31.442 29.4598 31.5185 29.3384 31.5739 29.196C31.6319 29.0535 31.661 28.8965 31.661 28.725ZM34.4351 32.4964H33.3468V26.6435H33.608L34.0393 27.154C34.1369 27.0616 34.2438 26.9746 34.3599 26.8928C34.476 26.811 34.596 26.7411 34.72 26.6831C34.8466 26.6224 34.9772 26.5749 35.1118 26.5406C35.2463 26.5063 35.3822 26.4891 35.5194 26.4891C35.8175 26.4891 36.0972 26.5432 36.3583 26.6514C36.6222 26.7569 36.8517 26.9073 37.0469 27.1025C37.2448 27.2978 37.4004 27.5339 37.5139 27.8109C37.6273 28.0853 37.6841 28.39 37.6841 28.725C37.6841 29.0733 37.6273 29.3872 37.5139 29.6669C37.4004 29.9439 37.2448 30.18 37.0469 30.3753C36.8517 30.5679 36.6222 30.7156 36.3583 30.8185C36.0972 30.9214 35.8175 30.9728 35.5194 30.9728C35.4244 30.9728 35.3294 30.9623 35.2345 30.9412C35.1421 30.9201 35.0498 30.8924 34.9574 30.8581C34.8677 30.8211 34.778 30.7802 34.6883 30.7354C34.6013 30.6905 34.5169 30.6444 34.4351 30.5969V32.4964ZM36.5997 28.725C36.5997 28.5456 36.5707 28.3847 36.5127 28.2423C36.4573 28.0998 36.3808 27.9797 36.2832 27.8821C36.1855 27.7819 36.0708 27.7054 35.9389 27.6526C35.8069 27.5998 35.6671 27.5735 35.5194 27.5735C35.3716 27.5735 35.2318 27.5998 35.0999 27.6526C34.9706 27.7054 34.8572 27.7819 34.7596 27.8821C34.662 27.9797 34.5841 28.0998 34.5261 28.2423C34.4707 28.3847 34.443 28.5456 34.443 28.725C34.443 28.8965 34.4707 29.0535 34.5261 29.196C34.5841 29.3384 34.662 29.4598 34.7596 29.56C34.8572 29.6603 34.9706 29.7381 35.0999 29.7935C35.2318 29.8489 35.3716 29.8766 35.5194 29.8766C35.6671 29.8766 35.8069 29.8489 35.9389 29.7935C36.0708 29.7381 36.1855 29.6603 36.2832 29.56C36.3808 29.4598 36.4573 29.3384 36.5127 29.196C36.5707 29.0535 36.5997 28.8965 36.5997 28.725Z" fill="black"/>
</svg>
