<svg width="30" height="26" viewBox="0 0 30 26" fill="none" xmlns="http://www.w3.org/2000/svg">
<path d="M11.1 15.5184H29.1C29.265 15.5184 29.4 15.648 29.4 15.8064V17.8228C29.4 17.9812 29.265 18.1109 29.1 18.1109H11.1C10.935 18.1109 10.8 17.9812 10.8 17.8228V15.8064C10.8 15.648 10.935 15.5184 11.1 15.5184ZM10.8 8.17303C10.8 8.01461 10.935 7.88498 11.1 7.88498H29.1C29.265 7.88498 29.4 8.01461 29.4 8.17303V10.1894C29.4 10.3478 29.265 10.4775 29.1 10.4775H11.1C10.935 10.4775 10.8 10.3478 10.8 10.1894V8.17303ZM29.7 25.6722H0.3C0.135 25.6722 0 25.5426 0 25.3842V23.3678C0 23.2094 0.135 23.0798 0.3 23.0798H29.7C29.865 23.0798 30 23.2094 30 23.3678V25.3842C30 25.5426 29.865 25.6722 29.7 25.6722ZM29.7 2.91607H0.3C0.135 2.91607 0 2.78645 0 2.62802V0.61165C0 0.453222 0.135 0.323597 0.3 0.323597H29.7C29.865 0.323597 30 0.453222 30 0.61165V2.62802C30 2.78645 29.865 2.91607 29.7 2.91607ZM1.14 8.31346L7.00125 12.7459C7.04071 12.7757 7.07262 12.8137 7.09456 12.857C7.11649 12.9004 7.12789 12.9479 7.12789 12.9961C7.12789 13.0443 7.11649 13.0919 7.09456 13.1352C7.07262 13.1786 7.04071 13.2166 7.00125 13.2464L1.14 17.6824C0.9225 17.848 0.6 17.7004 0.6 17.4339V8.56551C0.59998 8.50537 0.617585 8.44644 0.650801 8.39545C0.684018 8.34447 0.731507 8.30349 0.787837 8.27719C0.844167 8.2509 0.907066 8.24036 0.969342 8.24677C1.03162 8.25319 1.09076 8.2763 1.14 8.31346Z" fill="black"/>
</svg>
